<svg width="800" height="600" viewBox="0 0 800 600" fill="none" xmlns="http://www.w3.org/2000/svg">
  <rect width="800" height="600" fill="#070A0F"/>
  <rect width="800" height="600" fill="url(#grid)" opacity=".28"/>
  <circle cx="610" cy="88" r="210" fill="#FF007F" opacity=".22"/>
  <circle cx="168" cy="486" r="220" fill="#FFD21F" opacity=".18"/>
  <path d="M252 176h272l-27 250a76 76 0 0 1-75 68H354a76 76 0 0 1-75-68l-27-250Z" fill="url(#mug)" stroke="white" stroke-opacity=".18" stroke-width="6"/>
  <path d="M524 230h48c50 0 88 40 88 89s-38 90-88 90h-32l9-60h23c16 0 30-14 30-30s-14-30-30-30h-41l-7-59Z" fill="#0F1621" stroke="#FFD21F" stroke-width="8"/>
  <rect x="326" y="266" width="132" height="86" rx="18" fill="#05070A" stroke="#00D5FF" stroke-width="5"/>
  <path d="M345 310h94" stroke="url(#brand)" stroke-width="12" stroke-linecap="round"/>
  <path d="M356 334h72" stroke="white" stroke-opacity=".7" stroke-width="8" stroke-linecap="round"/>
  <text x="400" y="548" fill="#FFFFFF" text-anchor="middle" font-family="Arial, sans-serif" font-size="28" font-weight="800">Caneca Personalizada</text>
  <defs>
    <pattern id="grid" width="48" height="48" patternUnits="userSpaceOnUse"><path d="M48 0H0v48" stroke="white" stroke-opacity=".2"/></pattern>
    <linearGradient id="mug" x1="244" x2="526" y1="176" y2="492" gradientUnits="userSpaceOnUse"><stop stop-color="#FFFFFF"/><stop offset=".48" stop-color="#D8DEE9"/><stop offset="1" stop-color="#768295"/></linearGradient>
    <linearGradient id="brand" x1="345" x2="439" y1="310" y2="310" gradientUnits="userSpaceOnUse"><stop stop-color="#FFD21F"/><stop offset=".5" stop-color="#FF007F"/><stop offset="1" stop-color="#00D5FF"/></linearGradient>
  </defs>
</svg>
