<svg width="800" height="600" viewBox="0 0 800 600" fill="none" xmlns="http://www.w3.org/2000/svg">
  <rect width="800" height="600" fill="#06080C"/>
  <rect width="800" height="600" fill="url(#grid)" opacity=".24"/>
  <circle cx="626" cy="142" r="220" fill="#00D5FF" opacity=".18"/>
  <circle cx="176" cy="480" r="230" fill="#FF007F" opacity=".17"/>
  <path d="M346 92h108v60H346z" fill="#D8DEE9"/>
  <path d="M330 154h140l36 76v226c0 44-36 80-80 80h-52c-44 0-80-36-80-80V230l36-76Z" fill="url(#bottle)" stroke="white" stroke-opacity=".16" stroke-width="6"/>
  <rect x="326" y="278" width="148" height="110" rx="24" fill="#05070A" stroke="#FFD21F" stroke-width="5"/>
  <path d="M350 333h100" stroke="url(#brand)" stroke-width="14" stroke-linecap="round"/>
  <text x="400" y="572" fill="#FFFFFF" text-anchor="middle" font-family="Arial, sans-serif" font-size="28" font-weight="800">Squeeze Personalizado</text>
  <defs>
    <pattern id="grid" width="48" height="48" patternUnits="userSpaceOnUse"><path d="M48 0H0v48" stroke="white" stroke-opacity=".18"/></pattern>
    <linearGradient id="bottle" x1="294" x2="506" y1="154" y2="536" gradientUnits="userSpaceOnUse"><stop stop-color="#37FF8B"/><stop offset=".56" stop-color="#00D5FF"/><stop offset="1" stop-color="#8B2CFF"/></linearGradient>
    <linearGradient id="brand" x1="350" x2="450" y1="333" y2="333" gradientUnits="userSpaceOnUse"><stop stop-color="#FFD21F"/><stop offset="1" stop-color="#FF007F"/></linearGradient>
  </defs>
</svg>
