<svg width="800" height="600" viewBox="0 0 800 600" fill="none" xmlns="http://www.w3.org/2000/svg">
  <rect width="800" height="600" fill="#06080C"/>
  <rect width="800" height="600" fill="url(#grid)" opacity=".22"/>
  <circle cx="646" cy="132" r="230" fill="#FF007F" opacity=".18"/>
  <circle cx="150" cy="482" r="230" fill="#FFD21F" opacity=".15"/>
  <path d="M286 126h246l74 74v268c0 28-22 50-50 50H286c-28 0-50-22-50-50V176c0-28 22-50 50-50Z" fill="url(#tag)" stroke="white" stroke-opacity=".16" stroke-width="6"/>
  <circle cx="510" cy="218" r="26" fill="#05070A" stroke="#00D5FF" stroke-width="7"/>
  <path d="M292 322h238M292 374h172" stroke="white" stroke-opacity=".72" stroke-width="18" stroke-linecap="round"/>
  <path d="M292 272h150" stroke="url(#brand)" stroke-width="18" stroke-linecap="round"/>
  <text x="400" y="566" fill="#FFFFFF" text-anchor="middle" font-family="Arial, sans-serif" font-size="28" font-weight="800">Tag Personalizada</text>
  <defs>
    <pattern id="grid" width="46" height="46" patternUnits="userSpaceOnUse"><path d="M46 0H0v46" stroke="white" stroke-opacity=".18"/></pattern>
    <linearGradient id="tag" x1="236" x2="606" y1="126" y2="518" gradientUnits="userSpaceOnUse"><stop stop-color="#1A2230"/><stop offset="1" stop-color="#10151C"/></linearGradient>
    <linearGradient id="brand" x1="292" x2="442" y1="272" y2="272" gradientUnits="userSpaceOnUse"><stop stop-color="#FFD21F"/><stop offset="1" stop-color="#FF007F"/></linearGradient>
  </defs>
</svg>
